# Blender v3.0.0 OBJ File: 'Carpet.blend'
# www.blender.org
mtllib Carpet.mtl
o Plane
v -3.243003 0.000000 3.243003
v 3.243003 0.000000 3.243003
v -3.243003 0.000000 -3.243003
v 3.243003 0.000000 -3.243003
v 1.284006 0.000000 3.243003
v 1.284006 0.000000 -3.243003
v -3.243003 0.000000 -6.379725
v 1.284006 0.000000 -6.379725
vt 0.697966 0.000000
vt 1.000000 0.000000
vt 1.000000 1.000000
vt 0.697966 1.000000
vt 0.000000 0.000000
vt 0.000000 1.000000
vt 0.697966 1.000000
vt 0.000000 1.000000
vn 0.0000 1.0000 0.0000
usemtl None
s off
f 5/1/1 2/2/1 4/3/1 6/4/1
f 1/5/1 5/1/1 6/4/1 3/6/1
f 3/6/1 6/4/1 8/7/1 7/8/1
