# Blender v3.0.0 OBJ File: 'computer_tower.blend'
# www.blender.org
mtllib computer_discDrive.mtl
o Cube.008_Cube.009
v 0.410914 0.111775 0.069188
v 0.410914 0.115590 0.069188
v 0.410914 0.111775 -0.069188
v 0.410914 0.115590 -0.069188
v 0.624179 0.111775 0.069188
v 0.624179 0.115590 0.069188
v 0.624179 0.111775 -0.069188
v 0.624179 0.115590 -0.069188
v 0.624179 0.111775 0.021972
v 0.624179 0.111775 -0.021282
v 0.624179 0.115590 -0.020588
v 0.624179 0.115590 0.022346
v 0.623298 0.115590 -0.020676
v 0.623298 0.115590 0.022432
v 0.619092 0.115590 0.022017
v 0.615050 0.115590 0.020791
v 0.611324 0.115590 0.018799
v 0.608058 0.115590 0.016119
v 0.605377 0.115590 0.012853
v 0.603384 0.115590 0.009126
v 0.602160 0.115590 0.005083
v 0.601745 0.115590 0.000878
v 0.602159 0.115590 -0.003327
v 0.603385 0.115590 -0.007370
v 0.605377 0.115590 -0.011096
v 0.608058 0.115590 -0.014363
v 0.611324 0.115590 -0.017043
v 0.615050 0.115590 -0.019035
v 0.619094 0.115590 -0.020261
v 0.624179 0.111775 -0.020154
v 0.624179 0.111775 0.023324
v 0.624179 0.115590 -0.020261
v 0.624179 0.115590 0.023497
v 0.620618 0.111775 -0.020505
v 0.620618 0.111775 0.023675
v 0.616310 0.111775 0.023250
v 0.612166 0.111775 0.021993
v 0.608347 0.111775 0.019952
v 0.604999 0.111775 0.017205
v 0.602252 0.111775 0.013857
v 0.600211 0.111775 0.010038
v 0.598954 0.111775 0.005894
v 0.598529 0.111775 0.001585
v 0.598953 0.111775 -0.002725
v 0.600209 0.111775 -0.006868
v 0.602251 0.111775 -0.010687
v 0.605000 0.111775 -0.014035
v 0.608347 0.111775 -0.016782
v 0.612164 0.111775 -0.018823
v 0.616310 0.111775 -0.020080
v 0.717007 0.107303 0.080625
v 0.717007 0.124416 0.080625
v 0.717007 0.107303 -0.080625
v 0.717007 0.124416 -0.080625
v 0.713763 0.107303 0.080625
v 0.713763 0.124416 0.080625
v 0.713763 0.107303 -0.080625
v 0.713763 0.124416 -0.080625
v 0.388715 0.116307 -0.074042
v 0.388715 0.108809 -0.074042
v 0.388715 0.116307 0.074042
v 0.388715 0.108809 0.074042
v 0.716356 0.116307 -0.074042
v 0.716356 0.108809 -0.074042
v 0.716356 0.116307 0.074042
v 0.716356 0.108809 0.074042
v 0.614087 0.116307 0.064492
v 0.601148 0.116307 0.063240
v 0.588707 0.116307 0.059533
v 0.577241 0.116307 0.053512
v 0.567191 0.116307 0.045411
v 0.558943 0.116307 0.035538
v 0.552814 0.116307 0.024275
v 0.549040 0.116307 0.012054
v 0.547766 0.116307 -0.000656
v 0.549040 0.116307 -0.013366
v 0.552814 0.116307 -0.025587
v 0.558943 0.116307 -0.036850
v 0.567191 0.116307 -0.046723
v 0.577241 0.116307 -0.054825
v 0.588707 0.116307 -0.060845
v 0.601148 0.116307 -0.064552
v 0.614087 0.116307 -0.065804
v 0.627025 0.116307 -0.064552
v 0.639467 0.116307 -0.060845
v 0.650933 0.116307 -0.054825
v 0.660983 0.116307 -0.046723
v 0.669231 0.116307 -0.036850
v 0.675360 0.116307 -0.025587
v 0.679134 0.116307 -0.013366
v 0.680408 0.116307 -0.000656
v 0.679134 0.116307 0.012054
v 0.675360 0.116307 0.024275
v 0.669231 0.116307 0.035538
v 0.660983 0.116307 0.045411
v 0.650933 0.116307 0.053512
v 0.639467 0.116307 0.059533
v 0.627025 0.116307 0.063240
v 0.694441 0.116307 -0.029303
v 0.705612 0.116307 -0.052108
v 0.705562 0.116307 -0.066812
v 0.658127 0.116307 -0.066823
v 0.706202 0.116307 0.067225
v 0.657030 0.116307 0.067421
v 0.706185 0.116307 0.019790
v 0.705729 0.116307 -0.017639
v 0.488827 0.116031 0.074041
v 0.488827 0.123589 0.074041
v 0.488827 0.116031 -0.074041
v 0.488827 0.123589 -0.074041
v 0.546267 0.116031 0.074041
v 0.546267 0.123589 0.074041
v 0.546267 0.116031 -0.074041
v 0.546267 0.123589 -0.074041
v 0.705932 0.108018 0.070831
v 0.705932 0.123702 0.070831
v 0.544683 0.108018 0.070831
v 0.544683 0.123702 0.070831
v 0.705932 0.108018 0.074126
v 0.705932 0.123702 0.074126
v 0.544683 0.108018 0.074126
v 0.544683 0.123702 0.074126
v 0.705932 0.108018 -0.074188
v 0.705932 0.123702 -0.074188
v 0.544683 0.108018 -0.074188
v 0.544683 0.123702 -0.074188
v 0.705932 0.108018 -0.070893
v 0.705932 0.123702 -0.070893
v 0.544683 0.108018 -0.070893
v 0.544683 0.123702 -0.070893
v 0.715164 0.111382 -0.041936
v 0.715164 0.113656 -0.041936
v 0.715164 0.111382 -0.053931
v 0.715164 0.113656 -0.053931
v 0.719182 0.111382 -0.041936
v 0.719182 0.113656 -0.041936
v 0.719182 0.111382 -0.053931
v 0.719182 0.113656 -0.053931
v 0.715164 0.111382 0.052866
v 0.715164 0.113656 0.052866
v 0.715164 0.111382 0.040871
v 0.715164 0.113656 0.040871
v 0.719182 0.111382 0.052866
v 0.719182 0.113656 0.052866
v 0.719182 0.111382 0.040871
v 0.719182 0.113656 0.040871
vt 0.375000 0.000000
vt 0.625000 0.000000
vt 0.625000 0.250000
vt 0.375000 0.250000
vt 0.625000 0.500000
vt 0.375000 0.500000
vt 0.625000 0.587804
vt 0.375000 0.586551
vt 0.375000 0.750000
vt 0.625000 0.750000
vt 0.625000 1.000000
vt 0.375000 1.000000
vt 0.125000 0.500000
vt 0.375000 0.588588
vt 0.370826 0.587954
vt 0.365775 0.588721
vt 0.360915 0.590992
vt 0.356440 0.594680
vt 0.352517 0.599643
vt 0.349295 0.605691
vt 0.346901 0.612591
vt 0.345429 0.620077
vt 0.344931 0.627863
vt 0.345429 0.635649
vt 0.346903 0.643136
vt 0.349296 0.650036
vt 0.352516 0.656083
vt 0.356440 0.661046
vt 0.360917 0.664734
vt 0.365775 0.667005
vt 0.370825 0.667772
vt 0.375000 0.667139
vt 0.125000 0.750000
vt 0.875000 0.500000
vt 0.875000 0.750000
vt 0.625000 0.667451
vt 0.625000 0.665371
vt 0.626033 0.665527
vt 0.630964 0.664779
vt 0.635702 0.662563
vt 0.640070 0.658964
vt 0.643898 0.654122
vt 0.647041 0.648221
vt 0.649377 0.641488
vt 0.650812 0.634183
vt 0.651299 0.626586
vt 0.650814 0.618990
vt 0.649376 0.611684
vt 0.647041 0.604952
vt 0.643899 0.599051
vt 0.640070 0.594209
vt 0.635702 0.590611
vt 0.630962 0.588394
vt 0.626033 0.587646
vt 0.625000 0.588395
vt 0.375000 0.664696
vt 0.375000 0.000000
vt 0.625000 0.000000
vt 0.625000 0.250000
vt 0.375000 0.250000
vt 0.625000 0.500000
vt 0.375000 0.500000
vt 0.625000 0.750000
vt 0.375000 0.750000
vt 0.625000 1.000000
vt 0.375000 1.000000
vt 0.125000 0.500000
vt 0.125000 0.750000
vt 0.875000 0.500000
vt 0.875000 0.750000
vt 0.375000 0.000000
vt 0.625000 0.000000
vt 0.625000 0.250000
vt 0.375000 0.250000
vt 0.625000 0.500000
vt 0.375000 0.500000
vt 0.625000 0.750000
vt 0.375000 0.750000
vt 0.625000 1.000000
vt 0.375000 1.000000
vt 0.125000 0.500000
vt 0.367252 0.511509
vt 0.329732 0.511177
vt 0.125000 0.750000
vt 0.246360 0.626108
vt 0.247333 0.647565
vt 0.250212 0.668197
vt 0.254889 0.687212
vt 0.261182 0.703879
vt 0.268851 0.717557
vt 0.277600 0.727721
vt 0.287093 0.733979
vt 0.296965 0.736093
vt 0.306838 0.733979
vt 0.316331 0.727721
vt 0.325080 0.717557
vt 0.332749 0.703879
vt 0.339042 0.687212
vt 0.343718 0.668197
vt 0.346598 0.647565
vt 0.347570 0.626108
vt 0.358278 0.674470
vt 0.330570 0.737813
vt 0.366763 0.737794
vt 0.366802 0.712970
vt 0.367239 0.591589
vt 0.366891 0.654779
vt 0.346598 0.604651
vt 0.343718 0.584018
vt 0.339042 0.565003
vt 0.332749 0.548336
vt 0.325080 0.534658
vt 0.316331 0.524495
vt 0.306838 0.518236
vt 0.296965 0.516122
vt 0.287093 0.518236
vt 0.277600 0.524495
vt 0.268851 0.534658
vt 0.261182 0.548336
vt 0.254889 0.565003
vt 0.250212 0.584018
vt 0.247333 0.604650
vt 0.375000 0.000000
vt 0.625000 0.000000
vt 0.625000 0.250000
vt 0.375000 0.250000
vt 0.625000 0.500000
vt 0.375000 0.500000
vt 0.625000 0.750000
vt 0.375000 0.750000
vt 0.625000 1.000000
vt 0.375000 1.000000
vt 0.125000 0.500000
vt 0.125000 0.750000
vt 0.875000 0.500000
vt 0.875000 0.750000
vt 0.375000 0.000000
vt 0.625000 0.000000
vt 0.625000 0.250000
vt 0.375000 0.250000
vt 0.625000 0.500000
vt 0.375000 0.500000
vt 0.625000 0.750000
vt 0.375000 0.750000
vt 0.625000 1.000000
vt 0.375000 1.000000
vt 0.125000 0.500000
vt 0.125000 0.750000
vt 0.875000 0.500000
vt 0.875000 0.750000
vt 0.375000 0.000000
vt 0.625000 0.000000
vt 0.625000 0.250000
vt 0.375000 0.250000
vt 0.625000 0.500000
vt 0.375000 0.500000
vt 0.625000 0.750000
vt 0.375000 0.750000
vt 0.625000 1.000000
vt 0.375000 1.000000
vt 0.125000 0.500000
vt 0.125000 0.750000
vt 0.875000 0.500000
vt 0.875000 0.750000
vt 0.375000 0.000000
vt 0.625000 0.000000
vt 0.625000 0.250000
vt 0.375000 0.250000
vt 0.625000 0.500000
vt 0.375000 0.500000
vt 0.625000 0.750000
vt 0.375000 0.750000
vt 0.625000 1.000000
vt 0.375000 1.000000
vt 0.125000 0.500000
vt 0.125000 0.750000
vt 0.875000 0.500000
vt 0.875000 0.750000
vt 0.375000 0.000000
vt 0.625000 0.000000
vt 0.625000 0.250000
vt 0.375000 0.250000
vt 0.625000 0.500000
vt 0.375000 0.500000
vt 0.625000 0.750000
vt 0.375000 0.750000
vt 0.625000 1.000000
vt 0.375000 1.000000
vt 0.125000 0.500000
vt 0.125000 0.750000
vt 0.875000 0.500000
vt 0.875000 0.750000
vn -1.0000 0.0000 0.0000
vn 0.0000 0.0000 -1.0000
vn 1.0000 0.0000 0.0000
vn 0.0000 0.0000 1.0000
vn 0.0000 -1.0000 0.0000
vn 0.0000 1.0000 0.0000
usemtl None
s off
f 1/1/1 2/2/1 4/3/1 3/4/1
f 3/4/2 4/3/2 8/5/2 7/6/2
f 7/6/3 8/5/3 11/7/3 10/8/3
f 5/9/4 6/10/4 2/11/4 1/12/4
f 3/13/5 7/6/5 10/8/5 30/14/5 34/15/5 50/16/5 49/17/5 48/18/5 47/19/5 46/20/5 45/21/5 44/22/5 43/23/5 42/24/5 41/25/5 40/26/5 39/27/5 38/28/5 37/29/5 36/30/5 35/31/5 31/32/5 5/9/5 1/33/5
f 8/5/6 4/34/6 2/35/6 6/10/6 33/36/6 12/37/6 14/38/6 15/39/6 16/40/6 17/41/6 18/42/6 19/43/6 20/44/6 21/45/6 22/46/6 23/47/6 24/48/6 25/49/6 26/50/6 27/51/6 28/52/6 29/53/6 13/54/6 11/7/6
f 10/8/3 11/7/3 32/55/3 30/14/3
f 9/56/3 12/37/3 33/36/3 31/32/3
f 31/32/3 33/36/3 6/10/3 5/9/3
f 51/57/1 52/58/1 54/59/1 53/60/1
f 53/60/4 54/59/4 58/61/4 57/62/4
f 57/62/3 58/61/3 56/63/3 55/64/3
f 55/64/2 56/63/2 52/65/2 51/66/2
f 53/67/6 57/62/6 55/64/6 51/68/6
f 58/61/5 54/69/5 52/70/5 56/63/5
f 59/71/1 60/72/1 62/73/1 61/74/1
f 61/74/4 62/73/4 66/75/4 65/76/4
f 65/76/3 66/75/3 64/77/3 63/78/3
f 63/78/2 64/77/2 60/79/2 59/80/2
f 61/81/6 65/76/6 103/82/6 104/83/6
f 59/84/6 75/85/6 76/86/6 77/87/6 78/88/6 79/89/6 80/90/6 81/91/6 82/92/6 83/93/6 84/94/6 85/95/6 86/96/6 87/97/6 88/98/6 89/99/6 90/100/6 91/101/6 99/102/6 102/103/6 101/104/6 100/105/6 63/78/6
f 105/106/6 103/82/6 65/76/6 63/78/6 100/105/6 106/107/6 99/102/6 91/101/6 92/108/6 93/109/6 94/110/6 95/111/6 96/112/6 97/113/6 98/114/6 67/115/6 68/116/6 69/117/6 70/118/6 71/119/6 72/120/6 73/121/6 74/122/6 75/85/6 59/84/6 61/81/6 104/83/6
f 107/123/1 108/124/1 110/125/1 109/126/1
f 109/126/2 110/125/2 114/127/2 113/128/2
f 113/128/3 114/127/3 112/129/3 111/130/3
f 111/130/4 112/129/4 108/131/4 107/132/4
f 109/133/5 113/128/5 111/130/5 107/134/5
f 114/127/6 110/135/6 108/136/6 112/129/6
f 115/137/4 116/138/4 118/139/4 117/140/4
f 117/140/3 118/139/3 122/141/3 121/142/3
f 121/142/2 122/141/2 120/143/2 119/144/2
f 119/144/1 120/143/1 116/145/1 115/146/1
f 117/147/6 121/142/6 119/144/6 115/148/6
f 122/141/5 118/149/5 116/150/5 120/143/5
f 123/151/4 124/152/4 126/153/4 125/154/4
f 125/154/3 126/153/3 130/155/3 129/156/3
f 129/156/2 130/155/2 128/157/2 127/158/2
f 127/158/1 128/157/1 124/159/1 123/160/1
f 125/161/6 129/156/6 127/158/6 123/162/6
f 130/155/5 126/163/5 124/164/5 128/157/5
f 131/165/1 132/166/1 134/167/1 133/168/1
f 133/168/2 134/167/2 138/169/2 137/170/2
f 137/170/3 138/169/3 136/171/3 135/172/3
f 135/172/4 136/171/4 132/173/4 131/174/4
f 133/175/5 137/170/5 135/172/5 131/176/5
f 138/169/6 134/177/6 132/178/6 136/171/6
f 139/179/1 140/180/1 142/181/1 141/182/1
f 141/182/2 142/181/2 146/183/2 145/184/2
f 145/184/3 146/183/3 144/185/3 143/186/3
f 143/186/4 144/185/4 140/187/4 139/188/4
f 141/189/5 145/184/5 143/186/5 139/190/5
f 146/183/6 142/191/6 140/192/6 144/185/6
