# Blender v3.0.0 OBJ File: 'filecabinet.blend'
# www.blender.org
mtllib filecabinet_drawer.mtl
o Cube.003_Cube.012
v 1.383934 0.532034 0.337479
v 1.412930 0.453684 0.104553
v 1.383934 0.532034 -0.343767
v 1.412930 0.453684 -0.110840
v 1.383934 0.089287 0.337479
v 1.412930 0.327285 0.104553
v 1.383934 0.089287 -0.343767
v 1.412930 0.327285 -0.110840
v 1.412930 0.532034 0.337479
v 1.412930 0.532034 -0.343767
v 1.412930 0.089287 -0.343767
v 1.412930 0.089287 0.337479
v 1.416226 0.426742 0.075998
v 1.416226 0.426742 -0.082286
v 1.416226 0.354227 -0.082286
v 1.416226 0.354227 0.075998
v 1.421826 0.453684 0.104553
v 1.421826 0.453684 -0.110840
v 1.421826 0.327285 -0.110840
v 1.421826 0.327285 0.104553
v 1.421826 0.433132 0.085830
v 1.421826 0.433132 -0.092118
v 1.421826 0.347837 -0.092118
v 1.421826 0.347837 0.085830
v 0.829782 0.090664 0.339943
v 0.829782 0.107516 0.339943
v 0.829782 0.090664 -0.339943
v 0.829782 0.107516 -0.339943
v 1.409251 0.090664 0.339943
v 1.409251 0.107516 0.339943
v 1.409251 0.090664 -0.339943
v 1.409251 0.107516 -0.339943
v 0.829782 0.532034 -0.341337
v 0.829782 0.532034 -0.327738
v 1.409251 0.532034 -0.341337
v 1.409251 0.532034 -0.327738
v 0.829782 0.089287 -0.341337
v 0.829782 0.089287 -0.327738
v 1.409251 0.089287 -0.341337
v 1.409251 0.089287 -0.327738
v 0.829782 0.532034 0.326394
v 0.829782 0.532034 0.339992
v 1.409251 0.532034 0.326394
v 1.409251 0.532034 0.339992
v 0.829782 0.089287 0.326394
v 0.829782 0.089287 0.339992
v 1.409251 0.089287 0.326394
v 1.409251 0.089287 0.339992
v 0.829128 0.532034 0.337479
v 0.833452 0.532034 0.337479
v 0.829128 0.532034 -0.343767
v 0.833452 0.532034 -0.343767
v 0.829128 0.089287 0.337479
v 0.833452 0.089287 0.337479
v 0.829128 0.089287 -0.343767
v 0.833452 0.089287 -0.343767
v 1.388107 0.238468 0.196268
v 1.388107 0.250010 0.196268
v 1.388106 0.238468 -0.196268
v 1.388106 0.250010 -0.196268
v 1.471042 0.238468 -0.065746
v 1.471043 0.238468 0.065099
v 1.471043 0.250010 0.065099
v 1.471042 0.250010 -0.065746
v 1.384478 0.238468 -0.196268
v 1.384478 0.250010 -0.196268
v 1.384479 0.238468 0.196268
v 1.384479 0.250010 0.196268
v 1.446456 0.250010 -0.065746
v 1.446457 0.250010 0.065099
v 1.446456 0.238468 -0.065746
v 1.446457 0.238468 0.065099
vt 0.375000 0.000000
vt 0.625000 0.000000
vt 0.625000 0.250000
vt 0.375000 0.250000
vt 0.625000 0.500000
vt 0.375000 0.500000
vt 0.625000 0.750000
vt 0.375000 0.750000
vt 0.625000 1.000000
vt 0.375000 1.000000
vt 0.125000 0.500000
vt 0.125000 0.750000
vt 0.836483 0.538517
vt 0.836483 0.711483
vt 0.836483 0.711483
vt 0.836483 0.538517
vt 0.875000 0.500000
vt 0.875000 0.750000
vt 0.663517 0.538517
vt 0.663517 0.711483
vt 0.693928 0.564562
vt 0.806072 0.564562
vt 0.806072 0.685438
vt 0.693928 0.685438
vt 0.663517 0.711483
vt 0.663517 0.538517
vt 0.815954 0.692947
vt 0.815954 0.557053
vt 0.684046 0.557053
vt 0.684046 0.692947
vt 0.375000 0.000000
vt 0.625000 0.000000
vt 0.625000 0.250000
vt 0.375000 0.250000
vt 0.625000 0.500000
vt 0.375000 0.500000
vt 0.625000 0.750000
vt 0.375000 0.750000
vt 0.625000 1.000000
vt 0.375000 1.000000
vt 0.125000 0.500000
vt 0.125000 0.750000
vt 0.875000 0.500000
vt 0.875000 0.750000
vt 0.375000 0.000000
vt 0.625000 0.000000
vt 0.625000 0.250000
vt 0.375000 0.250000
vt 0.625000 0.500000
vt 0.375000 0.500000
vt 0.625000 0.750000
vt 0.375000 0.750000
vt 0.625000 1.000000
vt 0.375000 1.000000
vt 0.125000 0.500000
vt 0.125000 0.750000
vt 0.875000 0.500000
vt 0.875000 0.750000
vt 0.375000 0.000000
vt 0.625000 0.000000
vt 0.625000 0.250000
vt 0.375000 0.250000
vt 0.625000 0.500000
vt 0.375000 0.500000
vt 0.625000 0.750000
vt 0.375000 0.750000
vt 0.625000 1.000000
vt 0.375000 1.000000
vt 0.125000 0.500000
vt 0.125000 0.750000
vt 0.875000 0.500000
vt 0.875000 0.750000
vt 0.375000 0.000000
vt 0.625000 0.000000
vt 0.625000 0.250000
vt 0.375000 0.250000
vt 0.625000 0.500000
vt 0.375000 0.500000
vt 0.625000 0.750000
vt 0.375000 0.750000
vt 0.625000 1.000000
vt 0.375000 1.000000
vt 0.125000 0.500000
vt 0.125000 0.750000
vt 0.875000 0.500000
vt 0.875000 0.750000
vt 0.375000 0.166873
vt 0.625000 0.166873
vt 0.625000 0.250000
vt 0.375000 0.250000
vt 0.375000 0.892647
vt 0.625000 0.892647
vt 0.625000 1.000000
vt 0.375000 1.000000
vt 0.767647 0.666461
vt 0.875000 0.666461
vt 0.875000 0.750000
vt 0.767647 0.750000
vt 0.767647 0.500000
vt 0.875000 0.500000
vt 0.875000 0.583127
vt 0.767647 0.583127
vt 0.375000 0.000000
vt 0.625000 0.000000
vt 0.625000 0.083539
vt 0.375000 0.083539
vt 0.125000 0.583127
vt 0.232353 0.583127
vt 0.232353 0.666461
vt 0.125000 0.666461
vt 0.125000 0.500000
vt 0.232353 0.500000
vt 0.232353 0.750000
vt 0.125000 0.750000
vt 0.625000 0.357353
vt 0.375000 0.357353
vn 0.0000 1.0000 0.0000
vn 0.0000 0.0000 -1.0000
vn 0.0000 -1.0000 0.0000
vn 0.0000 0.0000 1.0000
vn -1.0000 0.0000 0.0000
vn 1.0000 0.0000 0.0000
vn 0.7521 -0.6591 0.0000
vn 0.8689 -0.0000 0.4949
vn 0.7521 0.6591 -0.0000
vn 0.8689 -0.0000 -0.4949
vn -0.8440 0.0000 0.5363
vn -0.8452 -0.0000 -0.5344
usemtl None
s off
f 1/1/1 9/2/1 10/3/1 3/4/1
f 3/4/2 10/3/2 11/5/2 7/6/2
f 7/6/3 11/5/3 12/7/3 5/8/3
f 5/8/4 12/7/4 9/9/4 1/10/4
f 3/11/5 7/6/5 5/8/5 1/12/5
f 4/13/1 2/14/1 17/15/1 18/16/1
f 2/14/6 4/13/6 10/17/6 9/18/6
f 4/13/6 8/19/6 11/5/6 10/17/6
f 8/19/6 6/20/6 12/7/6 11/5/6
f 6/20/6 2/14/6 9/18/6 12/7/6
f 15/21/6 14/22/6 13/23/6 16/24/6
f 2/14/4 6/20/4 20/25/4 17/15/4
f 8/19/2 4/13/2 18/16/2 19/26/2
f 6/20/3 8/19/3 19/26/3 20/25/3
f 21/27/6 22/28/6 18/16/6 17/15/6
f 22/28/6 23/29/6 19/26/6 18/16/6
f 23/29/6 24/30/6 20/25/6 19/26/6
f 24/30/6 21/27/6 17/15/6 20/25/6
f 13/23/7 14/22/7 22/28/7 21/27/7
f 14/22/8 15/21/8 23/29/8 22/28/8
f 15/21/9 16/24/9 24/30/9 23/29/9
f 16/24/10 13/23/10 21/27/10 24/30/10
f 25/31/5 26/32/5 28/33/5 27/34/5
f 27/34/2 28/33/2 32/35/2 31/36/2
f 31/36/6 32/35/6 30/37/6 29/38/6
f 29/38/4 30/37/4 26/39/4 25/40/4
f 27/41/3 31/36/3 29/38/3 25/42/3
f 32/35/1 28/43/1 26/44/1 30/37/1
f 33/45/1 34/46/1 36/47/1 35/48/1
f 35/48/6 36/47/6 40/49/6 39/50/6
f 39/50/3 40/49/3 38/51/3 37/52/3
f 37/52/5 38/51/5 34/53/5 33/54/5
f 35/55/2 39/50/2 37/52/2 33/56/2
f 40/49/4 36/57/4 34/58/4 38/51/4
f 41/59/1 42/60/1 44/61/1 43/62/1
f 43/62/6 44/61/6 48/63/6 47/64/6
f 47/64/3 48/63/3 46/65/3 45/66/3
f 45/66/5 46/65/5 42/67/5 41/68/5
f 43/69/2 47/64/2 45/66/2 41/70/2
f 48/63/4 44/71/4 42/72/4 46/65/4
f 49/73/1 50/74/1 52/75/1 51/76/1
f 51/76/2 52/75/2 56/77/2 55/78/2
f 55/78/3 56/77/3 54/79/3 53/80/3
f 53/80/4 54/79/4 50/81/4 49/82/4
f 51/83/5 55/78/5 53/80/5 49/84/5
f 56/77/6 52/85/6 50/86/6 54/79/6
f 61/87/11 64/88/11 60/89/11 59/90/11
f 67/91/2 68/92/2 58/93/2 57/94/2
f 70/95/3 63/96/3 58/97/3 68/98/3
f 66/99/3 60/100/3 64/101/3 69/102/3
f 69/102/3 64/101/3 63/96/3 70/95/3
f 57/103/12 58/104/12 63/105/12 62/106/12
f 62/106/5 63/105/5 64/88/5 61/87/5
f 61/107/1 71/108/1 72/109/1 62/110/1
f 59/111/1 65/112/1 71/108/1 61/107/1
f 62/110/1 72/109/1 67/113/1 57/114/1
f 59/90/4 60/89/4 66/115/4 65/116/4
