# Blender v3.0.0 OBJ File: 'office_box_test.blend'
# www.blender.org
mtllib office_box_test.mtl
o Cube
v 3.048000 0.046701 -3.048000
v 3.048000 -0.046701 -3.048000
v 3.048000 0.046701 3.048000
v 3.048000 -0.046701 3.048000
v -3.048000 0.046701 -3.048000
v -3.048000 -0.046701 -3.048000
v -3.048000 0.046701 3.048000
v -3.048000 -0.046701 3.048000
vt 0.625000 0.500000
vt 0.875000 0.500000
vt 0.875000 0.750000
vt 0.625000 0.750000
vt 0.375000 0.750000
vt 0.625000 1.000000
vt 0.375000 1.000000
vt 0.375000 0.000000
vt 0.625000 0.000000
vt 0.625000 0.250000
vt 0.375000 0.250000
vt 0.125000 0.500000
vt 0.375000 0.500000
vt 0.125000 0.750000
vn 0.0000 1.0000 0.0000
vn 0.0000 0.0000 1.0000
vn -1.0000 0.0000 0.0000
vn 0.0000 -1.0000 0.0000
vn 1.0000 0.0000 0.0000
vn 0.0000 0.0000 -1.0000
usemtl Material
s off
f 1/1/1 5/2/1 7/3/1 3/4/1
f 4/5/2 3/4/2 7/6/2 8/7/2
f 8/8/3 7/9/3 5/10/3 6/11/3
f 6/12/4 2/13/4 4/5/4 8/14/4
f 2/13/5 1/1/5 3/4/5 4/5/5
f 6/11/6 5/10/6 1/1/6 2/13/6
o Cube.001
v 3.011354 -0.038210 -3.048000
v 3.056561 -0.038210 -3.048000
v 3.011354 -0.038210 3.048000
v 3.056561 -0.038210 3.048000
v 3.011354 3.009789 -3.048000
v 3.056561 3.009789 -3.048000
v 3.011354 3.009789 3.048000
v 3.056561 3.009789 3.048000
vt 0.625000 0.500000
vt 0.625000 0.750000
vt 0.875000 0.750000
vt 0.875000 0.500000
vt 0.375000 0.750000
vt 0.375000 1.000000
vt 0.625000 1.000000
vt 0.375000 0.000000
vt 0.375000 0.250000
vt 0.625000 0.250000
vt 0.625000 0.000000
vt 0.125000 0.500000
vt 0.125000 0.750000
vt 0.375000 0.500000
vn -1.0000 0.0000 0.0000
vn 0.0000 0.0000 1.0000
vn 0.0000 1.0000 0.0000
vn 1.0000 0.0000 0.0000
vn 0.0000 -1.0000 0.0000
vn 0.0000 0.0000 -1.0000
usemtl Material
s off
f 9/15/7 11/16/7 15/17/7 13/18/7
f 12/19/8 16/20/8 15/21/8 11/16/8
f 16/22/9 14/23/9 13/24/9 15/25/9
f 14/26/10 16/27/10 12/19/10 10/28/10
f 10/28/11 12/19/11 11/16/11 9/15/11
f 14/23/12 10/28/12 9/15/12 13/24/12
o Cube.002
v -3.026792 -0.038210 -6.171083
v -2.981586 -0.038210 -6.171083
v -3.026792 -0.038210 3.045449
v -2.981586 -0.038210 3.045449
v -3.026792 3.009789 -6.171083
v -2.981585 3.009789 -6.171083
v -3.026792 3.009789 3.045449
v -2.981585 3.009789 3.045449
vt 0.625000 0.500000
vt 0.625000 0.750000
vt 0.875000 0.750000
vt 0.875000 0.500000
vt 0.375000 0.750000
vt 0.375000 1.000000
vt 0.625000 1.000000
vt 0.375000 0.000000
vt 0.375000 0.250000
vt 0.625000 0.250000
vt 0.625000 0.000000
vt 0.125000 0.500000
vt 0.125000 0.750000
vt 0.375000 0.500000
vn -1.0000 0.0000 0.0000
vn 0.0000 0.0000 1.0000
vn 0.0000 1.0000 0.0000
vn 1.0000 -0.0000 0.0000
vn 0.0000 -1.0000 0.0000
vn 0.0000 0.0000 -1.0000
usemtl Material
s off
f 17/29/13 19/30/13 23/31/13 21/32/13
f 20/33/14 24/34/14 23/35/14 19/30/14
f 24/36/15 22/37/15 21/38/15 23/39/15
f 22/40/16 24/41/16 20/33/16 18/42/16
f 18/42/17 20/33/17 19/30/17 17/29/17
f 22/37/18 18/42/18 17/29/18 21/38/18
o Cube.003
v 1.222914 0.046701 -6.128057
v 1.222914 -0.046701 -6.128057
v 1.222914 0.046701 -2.954217
v 1.222914 -0.046701 -2.954217
v -3.018445 0.046701 -6.128057
v -3.018445 -0.046701 -6.128057
v -3.018445 0.046701 -2.954217
v -3.018445 -0.046701 -2.954217
vt 0.625000 0.500000
vt 0.875000 0.500000
vt 0.875000 0.750000
vt 0.625000 0.750000
vt 0.375000 0.750000
vt 0.625000 1.000000
vt 0.375000 1.000000
vt 0.375000 0.000000
vt 0.625000 0.000000
vt 0.625000 0.250000
vt 0.375000 0.250000
vt 0.125000 0.500000
vt 0.375000 0.500000
vt 0.125000 0.750000
vn 0.0000 1.0000 0.0000
vn 0.0000 0.0000 1.0000
vn -1.0000 0.0000 0.0000
vn 0.0000 -1.0000 0.0000
vn 1.0000 0.0000 0.0000
vn 0.0000 0.0000 -1.0000
usemtl Material
s off
f 25/43/19 29/44/19 31/45/19 27/46/19
f 28/47/20 27/46/20 31/48/20 32/49/20
f 32/50/21 31/51/21 29/52/21 30/53/21
f 30/54/22 26/55/22 28/47/22 32/56/22
f 26/55/23 25/43/23 27/46/23 28/47/23
f 30/53/24 29/52/24 25/43/24 26/55/24
o Cube.004
v 3.101819 -0.038211 2.978030
v 3.101819 -0.038211 3.023237
v -2.994181 -0.038210 2.978030
v -2.994181 -0.038210 3.023237
v 3.101819 3.009789 2.978030
v 3.101819 3.009789 3.023237
v -2.994181 3.009789 2.978030
v -2.994181 3.009789 3.023237
vt 0.625000 0.500000
vt 0.625000 0.750000
vt 0.875000 0.750000
vt 0.875000 0.500000
vt 0.375000 0.750000
vt 0.375000 1.000000
vt 0.625000 1.000000
vt 0.375000 0.000000
vt 0.375000 0.250000
vt 0.625000 0.250000
vt 0.625000 0.000000
vt 0.125000 0.500000
vt 0.125000 0.750000
vt 0.375000 0.500000
vn -0.0000 0.0000 -1.0000
vn -1.0000 0.0000 0.0000
vn 0.0000 1.0000 0.0000
vn -0.0000 0.0000 1.0000
vn -0.0000 -1.0000 0.0000
vn 1.0000 0.0000 0.0000
usemtl Material
s off
f 33/57/25 35/58/25 39/59/25 37/60/25
f 36/61/26 40/62/26 39/63/26 35/58/26
f 40/64/27 38/65/27 37/66/27 39/67/27
f 38/68/28 40/69/28 36/61/28 34/70/28
f 34/70/29 36/61/29 35/58/29 33/57/29
f 38/65/30 34/70/30 33/57/30 37/66/30
o Cube.005
v 3.032151 -0.025628 -3.009124
v 3.032151 -0.025628 -2.963918
v 1.066649 -0.025628 -3.009124
v 1.066649 -0.025628 -2.963918
v 3.032152 3.022371 -3.009124
v 3.032152 3.022371 -2.963918
v 1.066649 3.022371 -3.009124
v 1.066649 3.022371 -2.963918
vt 0.625000 0.500000
vt 0.625000 0.750000
vt 0.875000 0.750000
vt 0.875000 0.500000
vt 0.375000 0.750000
vt 0.375000 1.000000
vt 0.625000 1.000000
vt 0.375000 0.000000
vt 0.375000 0.250000
vt 0.625000 0.250000
vt 0.625000 0.000000
vt 0.125000 0.500000
vt 0.125000 0.750000
vt 0.375000 0.500000
vn 0.0000 0.0000 -1.0000
vn -1.0000 0.0000 0.0000
vn 0.0000 1.0000 0.0000
vn 0.0000 0.0000 1.0000
vn 0.0000 -1.0000 0.0000
vn 1.0000 -0.0000 0.0000
usemtl Material
s off
f 41/71/31 43/72/31 47/73/31 45/74/31
f 44/75/32 48/76/32 47/77/32 43/72/32
f 48/78/33 46/79/33 45/80/33 47/81/33
f 46/82/34 48/83/34 44/75/34 42/84/34
f 42/84/35 44/75/35 43/72/35 41/71/35
f 46/79/36 42/84/36 41/71/36 45/80/36
o Cube.006
v 1.102289 -0.025628 -2.970487
v 1.057083 -0.025628 -2.970487
v 1.102289 -0.025628 -6.163218
v 1.057083 -0.025628 -6.163218
v 1.102289 3.022371 -2.970487
v 1.057083 3.022371 -2.970487
v 1.102289 3.022371 -6.163218
v 1.057083 3.022371 -6.163218
vt 0.625000 0.500000
vt 0.625000 0.750000
vt 0.875000 0.750000
vt 0.875000 0.500000
vt 0.375000 0.750000
vt 0.375000 1.000000
vt 0.625000 1.000000
vt 0.375000 0.000000
vt 0.375000 0.250000
vt 0.625000 0.250000
vt 0.625000 0.000000
vt 0.125000 0.500000
vt 0.125000 0.750000
vt 0.375000 0.500000
vn 1.0000 -0.0000 0.0000
vn 0.0000 0.0000 -1.0000
vn 0.0000 1.0000 -0.0000
vn -1.0000 0.0000 -0.0000
vn 0.0000 -1.0000 -0.0000
vn 0.0000 0.0000 1.0000
usemtl Material
s off
f 49/85/37 51/86/37 55/87/37 53/88/37
f 52/89/38 56/90/38 55/91/38 51/86/38
f 56/92/39 54/93/39 53/94/39 55/95/39
f 54/96/40 56/97/40 52/89/40 50/98/40
f 50/98/41 52/89/41 51/86/41 49/85/41
f 54/93/42 50/98/42 49/85/42 53/94/42
o Cube.007
v 1.197174 -0.038210 -6.167323
v 1.197174 -0.038210 -6.122117
v -3.060809 -0.038210 -6.167323
v -3.060809 -0.038210 -6.122117
v 1.197174 3.009789 -6.167323
v 1.197174 3.009789 -6.122117
v -3.060809 3.009789 -6.167323
v -3.060809 3.009789 -6.122117
vt 0.625000 0.500000
vt 0.625000 0.750000
vt 0.875000 0.750000
vt 0.875000 0.500000
vt 0.375000 0.750000
vt 0.375000 1.000000
vt 0.625000 1.000000
vt 0.375000 0.000000
vt 0.375000 0.250000
vt 0.625000 0.250000
vt 0.625000 0.000000
vt 0.125000 0.500000
vt 0.125000 0.750000
vt 0.375000 0.500000
vn 0.0000 0.0000 -1.0000
vn -1.0000 0.0000 0.0000
vn 0.0000 1.0000 0.0000
vn 0.0000 0.0000 1.0000
vn -0.0000 -1.0000 0.0000
vn 1.0000 0.0000 0.0000
usemtl Material
s off
f 57/99/43 59/100/43 63/101/43 61/102/43
f 60/103/44 64/104/44 63/105/44 59/100/44
f 64/106/45 62/107/45 61/108/45 63/109/45
f 62/110/46 64/111/46 60/103/46 58/112/46
f 58/112/47 60/103/47 59/100/47 57/99/47
f 62/107/48 58/112/48 57/99/48 61/108/48
